<svg xmlns="http://www.w3.org/2000/svg" width="777" height="298" viewBox="0 0 777 298" fill="none" xmlns="http://www.w3.org/2000/svg">
<g clip-path="url(#extkriya-clip0_86_791)">
<path d="M741.765 188.716H774.844C776.202 188.716 777.108 187.323 776.56 186.086L703.302 19.5804C698.347 8.31425 687.202 1.04175 674.897 1.04175C662.61 1.04175 651.475 8.29024 646.508 19.5323L572.92 186.025C572.373 187.269 573.279 188.662 574.636 188.662H607.841C609.323 188.662 610.67 187.785 611.275 186.428L628.475 147.561C628.774 146.882 629.447 146.444 630.192 146.444H719.444C720.19 146.444 720.861 146.882 721.162 147.561L738.336 186.476C738.939 187.839 740.283 188.716 741.772 188.716H741.765ZM644.905 110.328L673.901 44.6348C674.277 43.776 675.491 43.782 675.87 44.6348L704.737 110.328C704.846 110.574 704.664 110.856 704.394 110.856H645.248C644.978 110.856 644.798 110.58 644.905 110.328Z" fill="#00293E"/>
<path d="M310.665 99.3318C310.353 99.2297 310.401 98.7853 310.732 98.7492C330.561 96.9116 348.415 77.0937 348.415 55.3844C348.415 25.0452 321.163 1.63623 290.829 1.63623H191.134C190.095 1.63623 189.254 2.47696 189.254 3.5159V186.842C189.254 187.881 190.095 188.722 191.134 188.722H223.268C224.307 188.722 225.148 187.881 225.148 186.842V114.483C225.148 113.967 225.569 113.546 226.085 113.546H270.37C270.37 113.546 270.591 113.546 270.609 113.546C279.461 113.564 288.986 118.591 292.696 126.992L319.131 186.488C319.734 187.851 321.078 188.728 322.567 188.728H356.463C357.818 188.728 358.727 187.334 358.179 186.092L333.222 129.1C331.425 124.699 322.609 103.205 310.665 99.3378V99.3318ZM291.611 77.6524H226.085C225.569 77.6524 225.148 77.2319 225.148 76.7154V38.4613C225.148 37.9447 225.569 37.5243 226.085 37.5243H292.51C304.232 37.5243 313.644 47.6374 312.473 59.5942C311.451 70.0195 302.084 77.6524 291.611 77.6524Z" fill="#00293E"/>
<path d="M412.225 1.63623H380.097C379.058 1.63623 378.219 2.47778 378.219 3.5159V186.836C378.219 187.874 379.058 188.716 380.097 188.716H412.225C413.264 188.716 414.106 187.874 414.106 186.836V3.5159C414.106 2.47778 413.264 1.63623 412.225 1.63623Z" fill="#00293E"/>
<path d="M581.125 1.65582C579.629 1.64381 578.271 2.52659 577.664 3.89583L547.08 73.192C542.36 84.0857 535.176 89.935 525.137 89.935C515.096 89.935 507.93 84.2419 503.055 73.192L472.464 3.88382C471.863 2.52059 470.517 1.6438 469.028 1.6438H435.135C433.777 1.6438 432.868 3.03705 433.416 4.28017L470.222 87.6829C482.505 117.343 511.419 124.832 526.464 119.926L497.26 186.093C496.713 187.336 497.619 188.729 498.977 188.729H532.87C534.361 188.729 535.706 187.853 536.306 186.489L616.628 4.50237C617.176 3.26525 616.274 1.87801 614.923 1.866L581.125 1.66181V1.65582Z" fill="#00293E"/>
<path d="M91.5318 88.2998L160.546 4.70497C161.555 3.47988 160.684 1.63623 159.098 1.63623H121.042C119.925 1.63623 118.862 2.13467 118.148 2.99944L40.7443 96.7554C40.5221 97.0256 40.0778 96.8695 40.0778 96.5153V3.5159C40.0778 2.47696 39.2369 1.63623 38.198 1.63623H6.06329C5.02435 1.63623 4.18359 2.47696 4.18359 3.5159V186.842C4.18359 187.881 5.02435 188.722 6.06329 188.722H38.198C39.2369 188.722 40.0778 187.881 40.0778 186.842V153.32C40.0778 151.579 40.6843 149.885 41.7954 148.54L61.0725 125.191L61.1266 125.209C66.063 118.891 72.9092 115.36 80.8363 115.24C91.1594 115.084 100.438 121.618 104.612 131.064L129.071 186.482C129.672 187.845 131.017 188.722 132.506 188.722H166.389C167.746 188.722 168.653 187.328 168.106 186.085L135.245 111.709C127.936 95.4764 113.205 82.9611 91.5318 88.3058V88.2998Z" fill="#00293E"/>
</g>
<path d="M309.784 266.194C309.784 259.418 314.263 255.915 320.063 255.915C321.786 255.915 323.221 256.144 324.485 256.661L323.968 262.806C322.819 262.346 321.958 262.174 320.982 262.174C318.627 262.174 317.077 263.782 317.077 266.653V268.548H323.968V274.463H317.077V297.49H309.784V274.463H305.133V268.548H309.784V266.194Z" fill="#00293E"/>
<path d="M329.045 297.49V268.548H336.338V272.453C337.946 269.697 341.047 268.089 344.779 268.089C345.985 268.089 347.421 268.261 348.34 268.663L347.823 275.554C346.674 275.094 345.411 274.922 344.148 274.922C339.956 274.922 336.338 278.367 336.338 286.522V297.49H329.045Z" fill="#00293E"/>
<path d="M365.393 297.949C356.607 297.949 350.233 291.69 350.233 282.961C350.233 274.233 356.607 268.089 365.393 268.089C374.179 268.089 380.553 274.233 380.553 282.961C380.553 291.747 374.179 297.949 365.393 297.949ZM365.393 291.747C369.987 291.747 373.203 288.187 373.203 282.961C373.203 277.851 369.987 274.29 365.393 274.29C360.799 274.29 357.584 277.793 357.584 282.961C357.584 288.187 360.799 291.747 365.393 291.747Z" fill="#00293E"/>
<path d="M386.579 297.49V268.548H393.872V272.568C395.537 270.041 398.868 268.089 402.887 268.089C406.964 268.089 410.352 270.098 411.444 272.97C413.626 270.098 417.243 268.089 421.091 268.089C427.235 268.089 431.599 272.166 431.599 278.712V297.49H424.306V280.262C424.306 276.702 422.411 274.463 419.253 274.463C415.119 274.463 412.707 278.31 412.707 283.134V297.49H405.414V280.262C405.414 276.702 403.576 274.463 400.418 274.463C396.284 274.463 393.872 278.31 393.872 283.134V297.49H386.579Z" fill="#00293E"/>
<path d="M661.128 271.434C660.833 271.266 660.807 270.854 661.071 270.642C663.439 268.76 665.296 265.752 665.296 262.176C665.296 258.164 663.841 254.91 661.149 252.672C658.483 250.456 654.709 249.331 650.208 249.331H632.488V297.42H651.194C656.111 297.42 660.154 296.087 662.984 293.564C665.828 291.028 667.334 287.384 667.334 282.995C667.334 279.584 666.425 276.836 664.841 274.706C663.828 273.347 662.556 272.27 661.123 271.439L661.128 271.434ZM640.465 275.546H650.216C653.454 275.546 655.73 276.247 657.18 277.446C658.596 278.615 659.375 280.381 659.375 282.861C659.375 285.341 658.6 287.033 657.189 288.18C655.739 289.357 653.462 290.041 650.221 290.041H640.469V275.55L640.465 275.546ZM655.596 266.79C654.419 267.742 652.571 268.301 649.952 268.301H640.465V256.442H649.952C652.571 256.442 654.419 256.996 655.596 257.952C656.739 258.874 657.397 260.294 657.397 262.371C657.397 264.449 656.739 265.868 655.596 266.79Z" fill="#00293E"/>
<path d="M725.323 261.714C721.259 261.714 717.836 263.406 715.338 265.998C715.182 266.159 714.914 266.055 714.914 265.834V262.242H707.34V297.421H714.914V281.874C714.914 277.628 715.875 274.33 717.476 272.118C719.056 269.941 721.294 268.764 724.072 268.764C726.172 268.764 727.777 269.483 728.864 270.63C729.954 271.781 730.595 273.452 730.595 275.486V297.421H738.169V274.43C738.169 270.664 736.845 267.47 734.538 265.215C732.231 262.964 729.011 261.714 725.323 261.714Z" fill="#00293E"/>
<path d="M484.019 249.331H477.21L458.18 297.42H466.503L466.749 296.789L470.93 286.007C471.004 285.821 471.181 285.696 471.385 285.696H489.853C490.052 285.696 490.234 285.821 490.307 286.007L494.731 297.42H503.123L484.023 249.331H484.019ZM486.663 278.381H474.57C474.228 278.381 473.99 278.035 474.116 277.719L480.188 262.129C480.348 261.713 480.937 261.713 481.097 262.129L487.118 277.719C487.239 278.039 487.005 278.381 486.663 278.381Z" fill="#00293E"/>
<path d="M761.207 276.152L776.308 262.241H765.959L752.378 274.191C752.222 274.33 751.975 274.217 751.975 274.01V249.331H744.336V297.42H751.975V284.765C751.975 284.626 752.031 284.497 752.135 284.406L754.879 281.908C755.091 281.718 755.42 281.744 755.593 281.973L767.132 297.035L767.431 297.42H776.901L761.155 276.81C761.004 276.611 761.025 276.325 761.211 276.156L761.207 276.152Z" fill="#00293E"/>
<path d="M514.715 249.331H507.141V297.42H514.715V249.331Z" fill="#00293E"/>
<path d="M610.68 265.302C608.057 262.96 604.4 261.714 600.189 261.714C592.779 261.714 586.845 266.293 585.772 273.426L592.935 274.663C593.143 272.646 593.961 271.093 595.181 270.041C596.406 268.985 598.107 268.37 600.184 268.37C602.431 268.37 604.201 269.037 605.396 270.128C606.495 271.127 607.179 272.56 607.278 274.369C607.287 274.499 607.187 274.611 607.058 274.629L601.717 275.226C596.358 275.758 592.212 276.918 589.386 278.862C586.49 280.848 585.027 283.623 585.027 287.146C585.027 290.288 586.283 293.015 588.464 294.945C590.641 296.867 593.684 297.949 597.211 297.949C600.738 297.949 604.049 296.754 606.478 294.642C606.798 294.365 607.291 294.581 607.291 295.001V297.425H614.801V275.161C614.801 271.054 613.299 267.665 610.667 265.31L610.68 265.302ZM601.942 281.536H601.946L607.032 280.965C607.179 280.948 607.304 281.069 607.304 281.216C607.265 285.267 606.387 287.068 604.88 288.708C603.353 290.375 601.08 291.361 598.081 291.361C596.354 291.361 594.973 290.868 594.047 290.111C593.134 289.362 592.615 288.323 592.615 287.081C592.615 285.73 593.259 284.57 594.748 283.614C596.276 282.631 598.657 281.896 601.942 281.541V281.536Z" fill="#00293E"/>
<path d="M573.441 284.765C573.026 286.761 572.056 288.293 570.701 289.332C569.342 290.375 567.537 290.963 565.382 290.963C562.378 290.963 559.972 289.864 558.31 287.977C556.635 286.077 555.635 283.298 555.635 279.827C555.635 276.356 556.635 273.577 558.31 271.677C559.976 269.79 562.383 268.691 565.382 268.691C569.628 268.691 572.671 271.292 573.303 274.793L580.782 273.322C579.496 266.172 573.333 261.705 565.252 261.705C560.076 261.705 555.691 263.506 552.601 266.717C549.515 269.929 547.797 274.469 547.797 279.818C547.797 285.168 549.515 289.712 552.601 292.92C555.691 296.131 560.076 297.932 565.252 297.932C569.243 297.932 572.753 296.88 575.471 294.872C578.198 292.859 580.067 289.925 580.842 286.276L573.441 284.748V284.765Z" fill="#00293E"/>
<path d="M538.834 248.145C536.025 248.145 533.961 250.322 533.961 253.083C533.961 255.845 536.038 257.957 538.834 257.957C541.63 257.957 543.842 255.823 543.842 253.083C543.842 250.344 541.678 248.145 538.834 248.145Z" fill="#00293E"/>
<path d="M528.684 249.331H521.109V297.42H528.684V249.331Z" fill="#00293E"/>
<path d="M696.844 265.302C694.221 262.96 690.564 261.714 686.353 261.714C678.943 261.714 673.009 266.293 671.936 273.426L679.099 274.663C679.307 272.646 680.125 271.093 681.345 270.041C682.57 268.985 684.271 268.37 686.349 268.37C688.595 268.37 690.365 269.037 691.56 270.128C692.659 271.127 693.343 272.56 693.442 274.369C693.451 274.499 693.351 274.611 693.222 274.629L687.881 275.226C682.522 275.758 678.376 276.918 675.55 278.862C672.654 280.848 671.191 283.623 671.191 287.146C671.191 290.288 672.447 293.015 674.628 294.945C676.805 296.867 679.848 297.949 683.375 297.949C686.903 297.949 690.214 296.754 692.642 294.642C692.962 294.365 693.455 294.581 693.455 295.001V297.425H700.965V275.161C700.965 271.054 699.463 267.665 696.831 265.31L696.844 265.302ZM688.11 281.536H688.114L693.2 280.965C693.347 280.948 693.473 281.069 693.473 281.216C693.434 285.267 692.555 287.068 691.049 288.708C689.521 290.375 687.249 291.361 684.249 291.361C682.522 291.361 681.142 290.868 680.216 290.111C679.302 289.362 678.783 288.323 678.783 287.081C678.783 285.73 679.428 284.57 680.917 283.614C682.445 282.631 684.825 281.896 688.11 281.541V281.536Z" fill="#00293E"/>
<path d="M536.061 262.241H535.074V263.228V297.416H542.648V263.228V262.241H541.662H536.061Z" fill="#00293E"/>
<defs>
<clipPath id="extkriya-clip0_86_791">
<rect width="773.078" height="190.501" fill="white" transform="translate(3.82422 0.0510254)"/>
</clipPath>
</defs>
</svg>
