<svg xmlns="http://www.w3.org/2000/svg" viewBox="0 0 38 24" width="38" height="24" fill="none">
  <path fill="#000" fill-opacity="0.07" d="M2 0h34a2 2 0 0 1 2 2v20a2 2 0 0 1-2 2H2a2 2 0 0 1-2-2V2a2 2 0 0 1 2-2z"/>
  <path fill="#fff" d="M2 1h34a1 1 0 0 1 1 1v20a1 1 0 0 1-1 1H2a1 1 0 0 1-1-1V2a1 1 0 0 1 1-1z"/>
  <rect x="3" y="7.5" width="6" height="1.6" rx="0.8" fill="#FF5E00"/>
  <rect x="3" y="11.2" width="6" height="1.6" rx="0.8" fill="#FF5E00"/>
  <rect x="3" y="14.9" width="6" height="1.6" rx="0.8" fill="#FF5E00"/>
  <text x="24.5" y="15.5" text-anchor="middle" fill="#FF5E00" font-size="9" font-weight="900" font-family="Arial Black,Arial,Helvetica,sans-serif" letter-spacing="0.5">BLIK</text>
</svg>
